<svg width="36" height="32" viewBox="0 0 36 32" fill="none" xmlns="http://www.w3.org/2000/svg">
<path d="M8.28874 7.77552C10.1063 -1.17727 16.1532 0.630991 18.9494 2.65422C25.8003 -1.89804 28.7946 4.29809 29.4354 7.9652C37.8118 9.21937 36.6466 19.9678 31.3578 21.053C31.7074 27.3123 29.0152 30.8277 26.5685 30.9162C24.8208 30.9794 19.264 31.068 13.5317 30.9162C7.79938 30.7645 6.94886 24.2775 7.24014 21.053C0.528475 19.3355 2.85853 8.58711 8.28874 7.77552Z" fill="black" stroke="black" stroke-width="0.36"/>
<path d="M6.31846 7.42982C8.19046 -1.06618 14.4185 0.649818 17.2985 2.56982C24.3545 -1.75018 27.4385 4.12982 28.0984 7.60981C36.7257 8.8 35.5257 19 30.0784 20.0298C30.4384 25.9698 27.6657 29.3058 25.1457 29.3898C23.3457 29.4498 17.6224 29.5338 11.7184 29.3898C5.81445 29.2458 4.93845 23.0898 5.23846 20.0298C-1.67422 18.4 0.725617 8.2 6.31846 7.42982Z" fill="white" stroke="black" stroke-width="0.36"/>
<path d="M12.6174 18.0522L13.6661 16.8287C14.1776 16.232 14.7964 15.7409 15.4873 15.3792C16.0682 15.075 16.7317 14.9922 17.3874 14.9922C18.0431 14.9922 18.7066 15.075 19.2875 15.3792C19.9785 15.7409 20.5972 16.232 21.1087 16.8287L22.1574 18.0522L23.4917 19.2652C23.917 19.6518 24.252 20.1272 24.473 20.6577L24.6079 20.9814C24.8849 21.646 24.912 22.3885 24.6843 23.0716C24.4483 23.7795 23.9556 24.3732 23.3033 24.7356L23.1378 24.8275C22.8457 24.9898 22.5318 25.109 22.2056 25.1815L21.8622 25.2578C21.3414 25.3735 20.8073 25.418 20.2746 25.3899C18.4123 25.2511 16.5424 25.2469 14.6794 25.3774L14.5003 25.3899C13.9675 25.418 13.4334 25.3735 12.9126 25.2578L12.5692 25.1815C12.2431 25.109 11.9291 24.9898 11.637 24.8275L11.4715 24.7356C10.8193 24.3732 10.3265 23.7795 10.0905 23.0716C9.86284 22.3885 9.88997 21.646 10.1669 20.9814L10.3018 20.6577C10.5228 20.1272 10.8579 19.6518 11.2831 19.2652L12.6174 18.0522Z" fill="#AA9CE8" stroke="#AA9CE8" stroke-width="0.36"/>
<ellipse cx="7.57859" cy="14.2706" rx="2.52" ry="2.88" fill="#AA9CE8"/>
<ellipse cx="12.977" cy="7.79016" rx="2.52" ry="2.88" fill="#AA9CE8"/>
<ellipse cx="21.7255" cy="7.82829" rx="2.52" ry="2.88" transform="rotate(10.1064 21.7255 7.82829)" fill="#AA9CE8"/>
<ellipse cx="27.4812" cy="14.2338" rx="2.52" ry="2.88" transform="rotate(19.7403 27.4812 14.2338)" fill="#AA9CE8"/>
<path d="M28.1564 13.4269L28.0983 13.3688C27.8995 13.1699 27.8995 12.8476 28.0983 12.6488C28.2029 12.5441 28.3669 12.5278 28.4901 12.61L28.637 12.7079C28.7531 12.7853 28.8336 12.9056 28.861 13.0424L28.9547 13.5107C28.9832 13.6536 28.974 13.8015 28.928 13.9397L28.8489 14.177C28.8293 14.2357 28.7872 14.2843 28.7318 14.312C28.594 14.3809 28.4285 14.2999 28.3983 14.1489L28.3121 13.7178C28.29 13.6076 28.2359 13.5063 28.1564 13.4269Z" fill="#DDD5FF" stroke="#DDD5FF" stroke-width="0.36"/>
<path d="M22.3986 6.95029L22.3405 6.89219C22.1416 6.69336 22.1416 6.37101 22.3405 6.17219C22.4451 6.06753 22.6091 6.05129 22.7323 6.13339L22.8792 6.23135C22.9953 6.30872 23.0758 6.42903 23.1032 6.5658L23.1969 7.03414C23.2254 7.17703 23.2162 7.3249 23.1701 7.46315L23.0911 7.70042C23.0715 7.75918 23.0293 7.80775 22.9739 7.83545C22.8362 7.90431 22.6707 7.82336 22.6405 7.67237L22.5543 7.24123C22.5322 7.13101 22.4781 7.02977 22.3986 6.95029Z" fill="#DDD5FF" stroke="#DDD5FF" stroke-width="0.36"/>
<path d="M13.754 6.95029L13.6959 6.89219C13.4971 6.69336 13.4971 6.37101 13.6959 6.17219C13.8006 6.06753 13.9646 6.05129 14.0877 6.13339L14.2347 6.23135C14.3507 6.30872 14.4313 6.42903 14.4587 6.5658L14.5523 7.03414C14.5809 7.17703 14.5717 7.3249 14.5256 7.46315L14.4465 7.70042C14.4269 7.75918 14.3848 7.80775 14.3294 7.83545C14.1917 7.90431 14.0262 7.82336 13.996 7.67237L13.9097 7.24123C13.8877 7.13101 13.8335 7.02977 13.754 6.95029Z" fill="#DDD5FF" stroke="#DDD5FF" stroke-width="0.36"/>
<path d="M7.65555 13.3415L7.57784 13.3148C7.31193 13.2234 7.17046 12.9337 7.26185 12.6678C7.30996 12.5278 7.45018 12.4413 7.59688 12.461L7.7719 12.4845C7.91014 12.5031 8.03533 12.5759 8.11994 12.6867L8.40965 13.0665C8.49804 13.1823 8.55466 13.3192 8.57393 13.4637L8.607 13.7116C8.61518 13.773 8.59865 13.8351 8.56103 13.8843C8.46749 14.0066 8.28325 14.0065 8.18984 13.8841L7.92314 13.5346C7.85496 13.4452 7.76185 13.378 7.65555 13.3415Z" fill="#DDD5FF" stroke="#DDD5FF" stroke-width="0.36"/>
<path d="M19.1751 17.6618L19.0974 17.6351C18.8315 17.5437 18.69 17.254 18.7814 16.9881C18.8295 16.8481 18.9697 16.7616 19.1164 16.7813L19.2914 16.8048C19.4297 16.8234 19.5549 16.8962 19.6395 17.0071L19.9292 17.3868C20.0176 17.5026 20.0742 17.6395 20.0935 17.784L20.1265 18.0319C20.1347 18.0933 20.1182 18.1554 20.0806 18.2046C19.987 18.3269 19.8028 18.3268 19.7094 18.2044L19.4427 17.8549C19.3745 17.7655 19.2814 17.6983 19.1751 17.6618Z" fill="#DDD5FF" stroke="#DDD5FF" stroke-width="0.36"/>
<path d="M22.0661 20.3794L21.449 20.1198C21.272 20.0454 21.183 19.8465 21.2454 19.665C21.2801 19.5641 21.3571 19.4835 21.4563 19.4443L21.526 19.4167C21.6949 19.3499 21.8863 19.3747 22.0326 19.4822L22.7168 19.9852C22.9375 20.1475 23.0973 20.3794 23.1703 20.6435L23.5047 21.8533C23.5514 22.0223 23.4242 22.1894 23.2489 22.1894C23.1346 22.1894 23.0332 22.1163 22.9971 22.0079L22.6724 21.034C22.574 20.7387 22.3531 20.5002 22.0661 20.3794Z" fill="#DDD5FF" stroke="#DDD5FF" stroke-width="0.36"/>
<path d="M28.1564 13.4269L28.0983 13.3688C27.8995 13.1699 27.8995 12.8476 28.0983 12.6488C28.2029 12.5441 28.3669 12.5278 28.4901 12.61L28.637 12.7079C28.7531 12.7853 28.8336 12.9056 28.861 13.0424L28.9547 13.5107C28.9832 13.6536 28.974 13.8015 28.928 13.9397L28.8489 14.177C28.8293 14.2357 28.7872 14.2843 28.7318 14.312C28.594 14.3809 28.4285 14.2999 28.3983 14.1489L28.3121 13.7178C28.29 13.6076 28.2359 13.5063 28.1564 13.4269Z" fill="#DDD5FF" stroke="#DDD5FF" stroke-width="0.36"/>
</svg>
