<svg width="42" height="42" viewBox="0 0 42 42" fill="none" xmlns="http://www.w3.org/2000/svg">
<path d="M21.6918 4.60899C21.4463 4.34046 21.0993 4.1875 20.7354 4.1875C20.3714 4.1875 20.0245 4.34046 19.7789 4.60899L12.8669 12.169C12.3839 12.6972 12.4206 13.517 12.9488 14C13.4771 14.483 14.2969 14.4463 14.7798 13.918L19.4394 8.82165V27.9475C19.4394 28.6632 20.0196 29.2435 20.7354 29.2435C21.4511 29.2435 22.0314 28.6632 22.0314 27.9475V8.82165L26.6909 13.918C27.1739 14.4463 27.9936 14.483 28.5219 14C29.0501 13.517 29.0868 12.6972 28.6038 12.169L21.6918 4.60899Z" fill="black"/>
<path d="M6.47872 26.2179C6.47872 25.5021 5.89849 24.9219 5.18272 24.9219C4.46696 24.9219 3.88672 25.5021 3.88672 26.2179V26.3127C3.88669 28.676 3.88665 30.5807 4.08807 32.0789C4.29719 33.6343 4.74455 34.9438 5.78467 35.9838C6.82479 37.0241 8.13439 37.4715 9.68978 37.6806C11.1879 37.8819 13.0927 37.8819 15.4559 37.8819H26.0136C28.3768 37.8819 30.2816 37.8819 31.7798 37.6806C33.3351 37.4715 34.6446 37.0241 35.6849 35.9838C36.7249 34.9438 37.1723 33.6343 37.3814 32.0789C37.5827 30.5807 37.5827 28.676 37.5827 26.3127V26.2179C37.5827 25.5021 37.0025 24.9219 36.2867 24.9219C35.571 24.9219 34.9907 25.5021 34.9907 26.2179C34.9907 28.6982 34.988 30.4281 34.8126 31.7335C34.642 33.0015 34.3303 33.6728 33.852 34.1511C33.3737 34.6294 32.7023 34.9412 31.4343 35.1117C30.129 35.2871 28.3991 35.2899 25.9187 35.2899H15.5507C13.0703 35.2899 11.3404 35.2871 10.0352 35.1117C8.7672 34.9412 8.09573 34.6294 7.61749 34.1511C7.13925 33.6728 6.82743 33.0015 6.65696 31.7335C6.48147 30.4281 6.47872 28.6982 6.47872 26.2179Z" fill="black"/>
</svg>
